HIERARCHY
ROOT Hips
{
	OFFSET 0.000000 71.427986 0.000000
	CHANNELS 6 Xposition Yposition Zposition Xrotation Yrotation Zrotation
	JOINT Pelvis
	{
		OFFSET 0.000000 0.000000 0.000000
		CHANNELS 3 Xrotation Yrotation Zrotation
		JOINT LeftUpLeg
		{
			OFFSET 6.797100 -2.508499 -1.318700
			CHANNELS 3 Xrotation Yrotation Zrotation
			JOINT LeftLeg
			{
				OFFSET 0.069008 -29.241863 0.690200
				CHANNELS 3 Xrotation Yrotation Zrotation
				JOINT LeftFoot
				{
					OFFSET -0.069008 -29.568123 -0.266800
					CHANNELS 3 Xrotation Yrotation Zrotation
					JOINT LeftToeBase
					{
						OFFSET 3.145500 -8.631000 16.059900
						CHANNELS 3 Xrotation Yrotation Zrotation
						End Site
						{
							OFFSET 0.000000 18.501587 0.000000
						}
					}
				}
			}
			JOINT Left_ShortSleeve
			{
				OFFSET 0.265923 -10.480953 1.153800
				CHANNELS 3 Xrotation Yrotation Zrotation
				End Site
				{
					OFFSET 1.725763 19.823879 0.000000
				}
			}
		}
		JOINT RightUpLeg
		{
			OFFSET -6.797100 -2.508499 -1.318700
			CHANNELS 3 Xrotation Yrotation Zrotation
			JOINT RightLeg
			{
				OFFSET -0.082453 -29.241932 0.688000
				CHANNELS 3 Xrotation Yrotation Zrotation
				JOINT RightFoot
				{
					OFFSET 0.082453 -29.568058 -0.264600
					CHANNELS 3 Xrotation Yrotation Zrotation
					JOINT RightToeBase
					{
						OFFSET -3.115300 -8.682800 16.113400
						CHANNELS 3 Xrotation Yrotation Zrotation
						End Site
						{
							OFFSET 0.000000 18.567114 0.000000
						}
					}
				}
			}
			JOINT Right_ShortSleeve
			{
				OFFSET -0.265923 -10.480953 1.153800
				CHANNELS 3 Xrotation Yrotation Zrotation
				End Site
				{
					OFFSET -1.725766 19.823910 0.000000
				}
			}
		}
	}
	JOINT Spine
	{
		OFFSET 0.000000 13.368103 0.470500
		CHANNELS 3 Xrotation Yrotation Zrotation
		JOINT Spine1
		{
			OFFSET 0.147000 13.837402 0.538800
			CHANNELS 3 Xrotation Yrotation Zrotation
			JOINT Spine2
			{
				OFFSET 0.168000 16.242897 -1.435500
				CHANNELS 3 Xrotation Yrotation Zrotation
				JOINT Neck
				{
					OFFSET 0.217200 18.631500 -1.679100
					CHANNELS 3 Xrotation Yrotation Zrotation
					JOINT Head
					{
						OFFSET 0.000000 6.599396 1.385900
						CHANNELS 3 Xrotation Yrotation Zrotation
						JOINT Hat
						{
							OFFSET -0.532200 27.220596 -10.096100
							CHANNELS 3 Xrotation Yrotation Zrotation
							End Site
							{
								OFFSET 0.000000 22.029861 0.000000
							}
						}
						JOINT HairD
						{
							OFFSET -10.777400 17.437393 -1.325900
							CHANNELS 3 Xrotation Yrotation Zrotation
							JOINT HairD1
							{
								OFFSET -3.290299 -11.051193 1.062200
								CHANNELS 3 Xrotation Yrotation Zrotation
								End Site
								{
									OFFSET 0.000000 11.579437 0.000000
								}
							}
						}
						JOINT HairB
						{
							OFFSET -10.777400 17.437393 1.467900
							CHANNELS 3 Xrotation Yrotation Zrotation
							JOINT HairB1
							{
								OFFSET -1.561200 -12.956299 3.590200
								CHANNELS 3 Xrotation Yrotation Zrotation
								End Site
								{
									OFFSET 0.000000 13.534866 0.000000
								}
							}
						}
						JOINT HairA
						{
							OFFSET 9.713100 17.437393 1.467900
							CHANNELS 3 Xrotation Yrotation Zrotation
							JOINT HairA1
							{
								OFFSET 1.561200 -12.956299 3.590200
								CHANNELS 3 Xrotation Yrotation Zrotation
								End Site
								{
									OFFSET 0.000000 13.534866 0.000000
								}
							}
						}
						JOINT HairC
						{
							OFFSET 9.713100 17.437393 -1.325900
							CHANNELS 3 Xrotation Yrotation Zrotation
							JOINT HairC1
							{
								OFFSET 3.290300 -11.051193 1.062200
								CHANNELS 3 Xrotation Yrotation Zrotation
								End Site
								{
									OFFSET 0.000000 11.579437 0.000000
								}
							}
						}
					}
				}
				JOINT LeftShoulder
				{
					OFFSET 5.101800 15.108002 -2.763700
					CHANNELS 3 Xrotation Yrotation Zrotation
					JOINT LeftArm
					{
						OFFSET 9.825497 2.506317 -1.597400
						CHANNELS 3 Xrotation Yrotation Zrotation
						JOINT LeftForeArm
						{
							OFFSET 21.966244 0.000000 0.000000
							CHANNELS 3 Xrotation Yrotation Zrotation
							JOINT LeftHand
							{
								OFFSET 33.879036 0.000000 0.000000
								CHANNELS 3 Xrotation Yrotation Zrotation
								JOINT LeftHandThumb1
								{
									OFFSET 6.715286 -2.359680 3.363841
									CHANNELS 3 Xrotation Yrotation Zrotation
									JOINT LeftHandThumb2
									{
										OFFSET 2.507072 -1.447464 1.447461
										CHANNELS 3 Xrotation Yrotation Zrotation
										JOINT LeftHandThumb3
										{
											OFFSET 2.898338 -1.673355 1.673357
											CHANNELS 3 Xrotation Yrotation Zrotation
											End Site
											{
												OFFSET -0.295959 3.727692 -0.131651
											}
										}
									}
								}
								JOINT LeftHandIndex1
								{
									OFFSET 14.190811 -0.254547 3.840278
									CHANNELS 3 Xrotation Yrotation Zrotation
									JOINT LeftHandIndex2
									{
										OFFSET 3.551727 0.000000 -0.000000
										CHANNELS 3 Xrotation Yrotation Zrotation
										JOINT LeftHandIndex3
										{
											OFFSET 2.894196 0.000000 0.000000
											CHANNELS 3 Xrotation Yrotation Zrotation
											End Site
											{
												OFFSET -1.000603 2.690872 0.366626
											}
										}
									}
								}
								JOINT LeftHandMiddle1
								{
									OFFSET 13.776489 0.000000 0.000000
									CHANNELS 3 Xrotation Yrotation Zrotation
									JOINT LeftHandMiddle2
									{
										OFFSET 3.438232 0.000000 0.000000
										CHANNELS 3 Xrotation Yrotation Zrotation
										JOINT LeftHandMiddle3
										{
											OFFSET 3.691551 0.000000 0.000000
											CHANNELS 3 Xrotation Yrotation Zrotation
											End Site
											{
												OFFSET -1.082298 3.499527 0.457670
											}
										}
									}
								}
								JOINT LeftHandRing1
								{
									OFFSET 13.966164 -0.268127 -3.067488
									CHANNELS 3 Xrotation Yrotation Zrotation
									JOINT LeftHandRing2
									{
										OFFSET 3.162567 0.000000 0.000000
										CHANNELS 3 Xrotation Yrotation Zrotation
										JOINT LeftHandRing3
										{
											OFFSET 3.324348 0.000000 0.000000
											CHANNELS 3 Xrotation Yrotation Zrotation
											End Site
											{
												OFFSET -0.861900 3.184998 0.405154
											}
										}
									}
								}
								JOINT LeftHandPinky1
								{
									OFFSET 13.131393 -0.168503 -5.746925
									CHANNELS 3 Xrotation Yrotation Zrotation
									JOINT LeftHandPinky2
									{
										OFFSET 2.849182 0.000000 0.000000
										CHANNELS 3 Xrotation Yrotation Zrotation
										JOINT LeftHandPinky3
										{
											OFFSET 2.805038 0.000000 0.000000
											CHANNELS 3 Xrotation Yrotation Zrotation
											End Site
											{
												OFFSET -0.882500 2.642609 0.325652
											}
										}
									}
								}
							}
							JOINT Left_Sleeve
							{
								OFFSET 6.592125 -0.646545 0.805568
								CHANNELS 3 Xrotation Yrotation Zrotation
								End Site
								{
									OFFSET -0.000179 20.275787 -0.000000
								}
							}
						}
					}
				}
				JOINT RightShoulder
				{
					OFFSET -5.731700 15.108002 -2.763700
					CHANNELS 3 Xrotation Yrotation Zrotation
					JOINT RightArm
					{
						OFFSET -9.825497 2.506317 -1.597400
						CHANNELS 3 Xrotation Yrotation Zrotation
						JOINT RightForeArm
						{
							OFFSET -21.966242 0.000000 0.000000
							CHANNELS 3 Xrotation Yrotation Zrotation
							JOINT RightHand
							{
								OFFSET -33.879032 0.000000 0.000000
								CHANNELS 3 Xrotation Yrotation Zrotation
								JOINT RightHandThumb1
								{
									OFFSET -6.715286 -2.359680 3.363841
									CHANNELS 3 Xrotation Yrotation Zrotation
									JOINT RightHandThumb2
									{
										OFFSET -2.507072 -1.447464 1.447461
										CHANNELS 3 Xrotation Yrotation Zrotation
										JOINT RightHandThumb3
										{
											OFFSET -2.898338 -1.673355 1.673357
											CHANNELS 3 Xrotation Yrotation Zrotation
											End Site
											{
												OFFSET 0.295959 3.727692 -0.131651
											}
										}
									}
								}
								JOINT RightHandIndex1
								{
									OFFSET -14.190811 -0.254547 3.840278
									CHANNELS 3 Xrotation Yrotation Zrotation
									JOINT RightHandIndex2
									{
										OFFSET -3.551727 0.000000 -0.000000
										CHANNELS 3 Xrotation Yrotation Zrotation
										JOINT RightHandIndex3
										{
											OFFSET -2.894196 0.000000 0.000000
											CHANNELS 3 Xrotation Yrotation Zrotation
											End Site
											{
												OFFSET 1.000603 2.690872 0.366626
											}
										}
									}
								}
								JOINT RightHandMiddle1
								{
									OFFSET -13.776489 0.000000 0.000000
									CHANNELS 3 Xrotation Yrotation Zrotation
									JOINT RightHandMiddle2
									{
										OFFSET -3.438232 0.000000 0.000000
										CHANNELS 3 Xrotation Yrotation Zrotation
										JOINT RightHandMiddle3
										{
											OFFSET -3.691551 0.000000 0.000000
											CHANNELS 3 Xrotation Yrotation Zrotation
											End Site
											{
												OFFSET 1.082298 3.499527 0.457670
											}
										}
									}
								}
								JOINT RightHandRing1
								{
									OFFSET -13.966164 -0.268127 -3.067488
									CHANNELS 3 Xrotation Yrotation Zrotation
									JOINT RightHandRing2
									{
										OFFSET -3.162567 0.000000 0.000000
										CHANNELS 3 Xrotation Yrotation Zrotation
										JOINT RightHandRing3
										{
											OFFSET -3.324348 0.000000 0.000000
											CHANNELS 3 Xrotation Yrotation Zrotation
											End Site
											{
												OFFSET 0.861900 3.184998 0.405154
											}
										}
									}
								}
								JOINT RightHandPinky1
								{
									OFFSET -13.131393 -0.168503 -5.746925
									CHANNELS 3 Xrotation Yrotation Zrotation
									JOINT RightHandPinky2
									{
										OFFSET -2.849182 0.000000 0.000000
										CHANNELS 3 Xrotation Yrotation Zrotation
										JOINT RightHandPinky3
										{
											OFFSET -2.805038 0.000000 0.000000
											CHANNELS 3 Xrotation Yrotation Zrotation
											End Site
											{
												OFFSET 0.882500 2.642609 0.325652
											}
										}
									}
								}
							}
							JOINT Right_Sleeve
							{
								OFFSET -6.592125 -0.646545 0.805568
								CHANNELS 3 Xrotation Yrotation Zrotation
								End Site
								{
									OFFSET 0.000179 20.275787 -0.000000
								}
							}
						}
					}
				}
				JOINT Bind_Right_JacketString
				{
					OFFSET -3.534800 11.969597 7.200700
					CHANNELS 3 Xrotation Yrotation Zrotation
					JOINT Bind_Right_JacketString1
					{
						OFFSET -0.319900 -6.102600 2.794100
						CHANNELS 3 Xrotation Yrotation Zrotation
						End Site
						{
							OFFSET 0.000000 6.719452 0.000000
						}
					}
				}
				JOINT Bind_Left_JacketString
				{
					OFFSET 2.904800 11.969597 7.200700
					CHANNELS 3 Xrotation Yrotation Zrotation
					JOINT Bind_Left_JacketString1
					{
						OFFSET 0.364800 -5.904503 3.186800
						CHANNELS 3 Xrotation Yrotation Zrotation
						End Site
						{
							OFFSET 0.000000 6.719513 0.000000
						}
					}
				}
				JOINT HairE
				{
					OFFSET 5.915200 17.612701 -11.592200
					CHANNELS 3 Xrotation Yrotation Zrotation
					JOINT HairE1
					{
						OFFSET 0.289200 -7.171898 -1.284500
						CHANNELS 3 Xrotation Yrotation Zrotation
						End Site
						{
							OFFSET 0.000000 7.291756 0.000000
						}
					}
				}
				JOINT HairF
				{
					OFFSET -0.864800 17.612701 -11.592200
					CHANNELS 3 Xrotation Yrotation Zrotation
					JOINT HairF1
					{
						OFFSET 0.000000 -14.087097 -2.127501
						CHANNELS 3 Xrotation Yrotation Zrotation
						End Site
						{
							OFFSET 0.000000 14.246841 0.000000
						}
					}
				}
				JOINT HairG
				{
					OFFSET -8.087700 17.612701 -11.592200
					CHANNELS 3 Xrotation Yrotation Zrotation
					JOINT HairG1
					{
						OFFSET -0.293600 -6.081398 -0.910100
						CHANNELS 3 Xrotation Yrotation Zrotation
						End Site
						{
							OFFSET 0.000000 6.156120 0.000000
						}
					}
				}
			}
		}
	}
	JOINT Pouch
	{
		OFFSET 0.000000 4.394501 10.847300
		CHANNELS 3 Xrotation Yrotation Zrotation
		End Site
		{
			OFFSET 0.000000 21.880577 0.000000
		}
	}
	JOINT Bag
	{
		OFFSET -13.229000 4.813004 -0.593300
		CHANNELS 3 Xrotation Yrotation Zrotation
		End Site
		{
			OFFSET 0.000000 21.880577 0.000000
		}
	}
	JOINT OccupyGuyFacialAnim_Joint
	{
		OFFSET 1.000000 -70.206398 -1.655000
		CHANNELS 3 Xrotation Yrotation Zrotation
		End Site
		{
			OFFSET 0.000000 21.880577 0.000000
		}
	}
}
MOTION
Frames: 4
Frame Time: 0.033333
-6.863963 39.745316 1.132648 1.976738 -27.554564 12.840209 -0.000000 -0.000001 -0.000001 -77.183426 -3.129645 37.571580 98.896782 0.520662 -5.090312 -9.421292 1.723456 -15.608220 0.000000 0.000000 -0.000000 0.000000 0.000002 -0.000000 -13.567311 -16.255874 -10.253503 110.560115 -16.690877 2.025423 7.567991 -3.807607 5.203647 0.000001 0.000001 -0.000003 -0.000000 0.000002 -0.000000 3.469731 8.358824 -12.052862 0.058538 1.201417 -3.181166 0.089967 1.185377 -3.186309 0.749856 1.488010 4.571507 -2.986783 13.300951 -0.286351 -0.000000 -0.000000 0.000000 -0.000000 -0.000000 0.000000 -0.000000 -0.000000 0.000000 -0.000000 -0.000000 0.000000 -0.000000 -0.000000 0.000000 -0.000000 -0.000000 0.000000 -0.000000 -0.000000 0.000000 -0.000000 -0.000000 0.000000 -0.000000 -0.000000 0.000000 -0.130459 4.407148 -1.281625 20.477935 -42.780801 -47.910154 0.000007 -12.295197 0.000008 -20.294763 -9.951504 -1.399155 -1.603419 7.892539 6.769945 4.926098 20.313840 1.639087 0.000004 -0.000001 -0.000000 0.148963 1.427337 -11.915446 0.148959 1.427334 -11.915432 -0.000000 -0.000002 0.000001 0.148555 1.425446 -11.899456 0.149365 1.429206 -11.931444 -0.000001 0.000000 -0.000003 0.148969 1.427329 -11.915437 0.148946 1.427327 -11.915439 0.000001 0.000001 0.000000 0.971354 5.397687 -11.453995 0.143703 -2.628300 -12.415227 -0.000002 -0.000001 -0.000001 0.000000 0.000001 -0.000001 5.171284 8.323593 7.867376 54.825659 59.963139 16.239413 -0.000015 33.972371 0.000003 -27.499045 -8.981050 -1.701824 -1.849257 -3.581247 -6.586056 5.450920 -17.742385 -0.843516 0.000000 -0.000001 -0.000000 0.284922 -1.973823 16.426970 0.284928 -1.973811 16.426962 -0.000000 0.000000 0.000002 0.284926 -1.973813 16.426967 0.284926 -1.973815 16.426977 0.000002 -0.000001 -0.000001 0.284933 -1.973805 16.426953 0.284929 -1.973818 16.426969 0.000001 0.000000 -0.000002 0.284924 -1.973820 16.426960 0.284923 -1.973816 16.426977 -0.000002 0.000002 -0.000001 0.000003 0.000001 0.000001 0.000000 -0.000000 0.000000 0.000000 0.000001 -0.000000 0.000000 -0.000000 -0.000000 0.000000 -0.000000 -0.000000 0.000000 -0.000000 0.000000 0.000000 0.000001 -0.000000 0.000000 -0.000000 -0.000000 0.000000 -0.000000 -0.000000 0.000000 -0.000000 0.000000 0.000000 0.000001 -0.000000 -0.000000 -0.000001 -0.000001 -0.000000 -0.000001 -0.000001 -0.000000 -0.000001 -0.000001 
-6.875984 39.746826 1.134295 1.942493 -27.526487 12.838251 0.000000 0.000001 0.000001 -77.141311 -3.148420 37.508493 98.884453 0.569961 -5.094914 -9.399259 1.729256 -15.644719 -0.000000 -0.000000 -0.000000 -0.000000 0.000000 0.000000 -13.568704 -16.285060 -10.280242 110.527658 -16.655391 2.020734 7.704174 -3.806133 5.212210 0.000001 -0.000004 -0.000002 0.000001 -0.000001 -0.000000 3.497057 8.302841 -12.053244 0.019622 1.195103 -3.193258 0.051158 1.178170 -3.199128 0.835461 1.507071 4.563169 -3.034488 13.363290 -0.248016 -0.000000 -0.000000 0.000000 -0.000000 -0.000000 0.000000 -0.000000 -0.000000 0.000000 -0.000000 -0.000000 -0.000000 -0.000000 -0.000000 -0.000000 -0.000000 -0.000000 -0.000000 -0.000000 -0.000000 -0.000000 -0.000000 -0.000000 0.000000 -0.000000 -0.000000 0.000000 -0.119379 4.341756 -1.243482 20.360779 -42.589962 -48.056241 -0.000005 -12.336202 0.000015 -20.411766 -9.989676 -1.496501 -1.603424 7.892523 6.769940 4.926115 20.314000 1.639099 0.000000 -0.000001 0.000002 0.148962 1.427328 -11.915434 0.148966 1.427320 -11.915457 -0.000000 -0.000001 -0.000002 0.148561 1.425439 -11.899453 0.149369 1.429213 -11.931441 0.000003 -0.000000 0.000001 0.148962 1.427318 -11.915431 0.148961 1.427335 -11.915445 0.000001 0.000002 -0.000001 0.971355 5.397662 -11.454005 0.143733 -2.628291 -12.415228 -0.000003 0.000000 -0.000002 0.000003 -0.000000 -0.000001 5.215815 8.487913 7.858088 53.823848 59.959888 17.370981 -0.000030 33.636923 0.000026 -27.270780 -8.870381 -1.522958 -1.849226 -3.580715 -6.585977 5.450902 -17.742060 -0.843474 0.000002 0.000000 0.000003 0.284926 -1.973819 16.426798 0.284932 -1.973798 16.426841 -0.000002 0.000001 0.000000 0.284925 -1.973811 16.426805 0.284934 -1.973812 16.426825 0.000002 -0.000002 -0.000001 0.284925 -1.973797 16.426801 0.284937 -1.973815 16.426815 0.000003 -0.000002 -0.000001 0.284927 -1.973813 16.426800 0.284927 -1.973802 16.426839 0.000003 -0.000001 0.000000 0.000000 -0.000001 -0.000001 -0.000000 0.000000 0.000001 -0.000000 0.000000 0.000000 -0.000000 0.000000 0.000000 -0.000000 0.000000 0.000000 -0.000000 0.000000 0.000001 -0.000000 0.000000 0.000000 -0.000000 0.000000 0.000000 -0.000000 0.000000 0.000000 -0.000000 0.000000 0.000001 -0.000000 0.000000 0.000000 0.000000 0.000001 0.000001 0.000000 0.000001 0.000001 0.000000 0.000001 0.000001 
-6.889349 39.750740 1.117774 1.906078 -27.507487 12.831825 -0.000000 0.000001 0.000000 -77.095241 -3.167890 37.488941 98.845241 0.600468 -5.133197 -9.348599 1.726215 -15.643532 0.000000 -0.000001 0.000000 0.000000 0.000002 0.000000 -13.575823 -16.335777 -10.282784 110.482989 -16.625773 2.019556 7.818360 -3.849137 5.068227 0.000000 0.000001 0.000000 -0.000000 0.000001 -0.000001 3.547777 8.252263 -12.092310 0.010679 1.191165 -3.175384 0.041694 1.173852 -3.181516 0.846067 1.526655 4.514982 -3.131414 13.381284 -0.196020 0.000000 -0.000000 -0.000000 0.000000 -0.000000 -0.000000 0.000000 -0.000000 -0.000000 0.000000 -0.000000 -0.000000 0.000000 -0.000000 -0.000000 0.000000 -0.000000 -0.000000 0.000000 -0.000000 -0.000000 0.000000 -0.000000 -0.000000 0.000000 -0.000000 -0.000000 -0.117508 4.334755 -1.250400 20.277196 -42.524563 -48.087114 0.000004 -12.371181 0.000004 -20.377215 -10.048768 -1.513966 -1.603413 7.892518 6.769918 4.926096 20.314074 1.639127 0.000000 0.000002 0.000002 0.148964 1.427335 -11.915439 0.148966 1.427311 -11.915459 0.000001 -0.000000 -0.000000 0.148558 1.425438 -11.899462 0.149358 1.429203 -11.931437 -0.000001 -0.000001 -0.000001 0.148970 1.427322 -11.915445 0.148959 1.427321 -11.915444 0.000002 -0.000000 -0.000003 0.971353 5.397671 -11.454013 0.143717 -2.628308 -12.415227 -0.000000 -0.000001 0.000001 0.000001 -0.000001 -0.000000 5.247178 8.575349 7.852498 53.496565 59.977039 17.743337 -0.000014 33.442058 0.000013 -27.438511 -8.785730 -1.447393 -1.849267 -3.583943 -6.586456 5.450899 -17.742243 -0.843513 0.000003 -0.000001 -0.000000 0.284883 -1.973659 16.425591 0.284890 -1.973664 16.425606 -0.000009 -0.000000 0.000000 0.284882 -1.973659 16.425592 0.284893 -1.973674 16.425596 0.000001 0.000000 0.000001 0.284882 -1.973642 16.425584 0.284888 -1.973681 16.425589 -0.000000 -0.000002 -0.000003 0.284884 -1.973664 16.425580 0.284897 -1.973674 16.425601 -0.000003 -0.000001 0.000002 -0.000001 0.000000 -0.000000 -0.000000 -0.000001 -0.000000 0.000000 0.000001 -0.000000 -0.000000 -0.000001 -0.000000 -0.000000 -0.000001 -0.000000 -0.000000 -0.000001 -0.000000 0.000000 0.000001 -0.000000 -0.000000 -0.000001 -0.000000 -0.000000 -0.000001 -0.000000 -0.000000 -0.000001 -0.000000 0.000000 0.000001 -0.000000 -0.000000 0.000001 0.000000 -0.000000 0.000001 0.000000 -0.000000 0.000001 0.000000 
-6.889932 39.752716 1.093009 1.894410 -27.540035 12.833771 -0.000000 0.000001 -0.000000 -77.064901 -3.179664 37.518629 98.816015 0.638383 -5.176369 -9.299403 1.721237 -15.635176 0.000000 0.000001 0.000000 -0.000000 -0.000001 0.000001 -13.615361 -16.336774 -10.274355 110.489757 -16.618967 2.004307 7.866236 -3.892116 4.985595 0.000000 -0.000000 0.000003 -0.000000 -0.000001 -0.000000 3.591503 8.254225 -12.133456 0.036962 1.194129 -3.137980 0.067223 1.177233 -3.143772 0.776620 1.539607 4.465032 -3.180657 13.395113 -0.220661 0.000000 -0.000000 0.000000 0.000000 -0.000000 0.000000 0.000000 -0.000000 0.000000 0.000000 -0.000000 0.000000 0.000000 -0.000000 0.000000 0.000000 -0.000000 0.000000 0.000000 -0.000000 0.000000 0.000000 -0.000000 0.000000 0.000000 -0.000000 0.000000 -0.129182 4.421282 -1.348595 20.343380 -42.670012 -47.908268 0.000001 -12.391176 0.000002 -20.216356 -10.124300 -1.393264 -1.603422 7.892529 6.769949 4.926060 20.313616 1.639077 -0.000003 -0.000000 0.000003 0.148964 1.427318 -11.915444 0.148963 1.427320 -11.915446 -0.000004 -0.000002 -0.000002 0.148569 1.425448 -11.899457 0.149362 1.429206 -11.931450 0.000005 0.000001 0.000001 0.148964 1.427309 -11.915434 0.148965 1.427340 -11.915432 0.000000 0.000001 0.000001 0.971347 5.397665 -11.453995 0.143720 -2.628301 -12.415237 0.000002 -0.000000 0.000001 -0.000001 -0.000000 0.000002 5.242455 8.588134 7.852416 53.324076 59.929200 17.858025 -0.000009 33.383820 0.000007 -27.596022 -8.780022 -1.452011 -1.849320 -3.586456 -6.586873 5.451001 -17.743165 -0.843536 -0.000002 -0.000001 0.000002 0.284887 -1.973657 16.425596 0.284893 -1.973659 16.425599 -0.000003 -0.000001 0.000004 0.284885 -1.973662 16.425594 0.284894 -1.973661 16.425604 0.000001 -0.000001 0.000003 0.284888 -1.973644 16.425592 0.284891 -1.973663 16.425598 -0.000002 -0.000001 0.000001 0.284876 -1.973661 16.425587 0.284902 -1.973654 16.425608 0.000002 0.000000 -0.000001 0.000000 -0.000001 -0.000000 0.000000 0.000000 -0.000000 -0.000000 -0.000001 0.000000 0.000000 0.000000 -0.000000 0.000000 0.000000 -0.000000 0.000000 0.000000 -0.000000 -0.000000 -0.000001 -0.000000 0.000000 0.000000 -0.000000 0.000000 0.000000 -0.000000 0.000000 0.000000 -0.000000 -0.000000 -0.000001 -0.000000 -0.000000 0.000001 -0.000000 -0.000000 0.000001 -0.000000 -0.000000 0.000001 -0.000000 
